<?xml version="1.0" encoding="UTF-8" standalone="no"?>
<svg
   xmlns:dc="http://purl.org/dc/elements/1.1/"
   xmlns:cc="http://creativecommons.org/ns#"
   xmlns:rdf="http://www.w3.org/1999/02/22-rdf-syntax-ns#"
   xmlns:svg="http://www.w3.org/2000/svg"
   xmlns="http://www.w3.org/2000/svg"
   xmlns:xlink="http://www.w3.org/1999/xlink"
   width="16"
   height="16"
   viewBox="0 0 4.2333333 4.2333333"
   version="1.1"
   id="svg8116">
  <defs
     id="defs8110">
    <linearGradient
       id="linearGradient8891">
      <stop
         style="stop-color:#600ebc;stop-opacity:1"
         offset="0"
         id="stop8887" />
      <stop
         style="stop-color:#ff6800;stop-opacity:1"
         offset="1"
         id="stop8889" />
    </linearGradient>
    <linearGradient
       xlink:href="#linearGradient8891"
       id="linearGradient8893"
       x1="0.022768054"
       y1="296.97827"
       x2="4.2240291"
       y2="292.77499"
       gradientUnits="userSpaceOnUse" />
  </defs>
  <metadata
     id="metadata8113">
    <rdf:RDF>
      <cc:Work
         rdf:about="">
        <dc:format>image/svg+xml</dc:format>
        <dc:type
           rdf:resource="http://purl.org/dc/dcmitype/StillImage" />
        <dc:title></dc:title>
      </cc:Work>
    </rdf:RDF>
  </metadata>
  <g
     id="layer1"
     transform="translate(0,-292.76667)">
    <path
       id="path8674-3-2"
       style="fill:url(#linearGradient8893);fill-opacity:1;stroke:none;stroke-width:0.26458332"
       d="m 3.1769926,296.71577 a 0.42505952,0.42505952 0 0 1 -0.580637,-0.15558 0.42505952,0.42505952 0 0 1 0.1555757,-0.58064 0.42505952,0.42505952 0 0 1 0.5806445,0.15558 0.42505952,0.42505952 0 0 1 -0.1555832,0.58064 z M 0,294.88627 a 0.42505952,0.42505952 0 0 1 0.42506173,-0.42507 0.42505952,0.42505952 0 0 1 0.42505522,0.42507 0.42505952,0.42505952 0 0 1 -0.42505848,0.42505 A 0.42505952,0.42505952 0 0 1 0,294.88627 Z m 3.1727391,-1.83688 a 0.42505952,0.42505952 0 0 1 0.1555828,0.58065 0.42505952,0.42505952 0 0 1 -0.5806385,0.15558 0.42505952,0.42505952 0 0 1 -0.1555784,-0.58064 0.42505952,0.42505952 0 0 1 0.5806341,-0.15559 z m -1.8696015,-0.0566 c -0.081678,-0.006 -0.1660011,0.0119 -0.2422678,0.056 -6.868e-4,4e-4 -0.0015,8.8e-4 -0.00207,0.002 -6.836e-4,3.8e-4 -0.00168,6e-4 -0.00247,8.8e-4 -0.20357455,0.11735 -0.27337497,0.37768 -0.15574198,0.58109 0.0483215,0.0835 0.12361808,0.14803 0.21357588,0.18306 0.3469449,0.16045 0.3745447,0.31263 0.2026552,0.57563 -0.097379,0.14902 -0.1404074,0.33436 -0.1370739,0.47225 -0.013981,0.13969 0.029435,0.34858 0.1361632,0.51186 0.1718925,0.26301 0.1442663,0.4152 -0.2026544,0.57563 -0.089959,0.0351 -0.16526787,0.0995 -0.21359182,0.18305 -0.11763387,0.20341 -0.0478359,0.46373 0.15574332,0.58108 6.871e-4,4e-4 0.00165,8.9e-4 0.00241,6.5e-4 6.751e-4,3.9e-4 0.00129,8.8e-4 0.00189,0.002 0.2034174,0.11762 0.4637488,0.0478 0.5810902,-0.15574 0.048203,-0.0836 0.066556,-0.18144 0.051913,-0.27688 -0.034528,-0.38069 0.083397,-0.4805 0.397113,-0.46315 0.1857128,0.0103 0.3767045,-0.0505 0.4931935,-0.12705 0.125102,-0.0619 0.2747518,-0.1976 0.3593113,-0.36478 0.1418119,-0.28036 0.2873335,-0.33272 0.59976,-0.11248 0.075358,0.0604 0.1689583,0.0933 0.2654948,0.0934 0.2349681,1.6e-4 0.4254749,-0.19039 0.4253371,-0.42534 4.1e-6,-7.9e-4 -5.608e-4,-0.002 -2.326e-4,-0.002 -3e-7,-8e-4 3.225e-4,-8.9e-4 6.452e-4,-0.003 1.604e-4,-0.23498 -0.190398,-0.42548 -0.4253408,-0.42535 -0.096528,7e-5 -0.1901776,0.033 -0.2655007,0.0933 -0.3124075,0.22026 -0.4579199,0.16791 -0.5997606,-0.11248 -0.08129,-0.16072 -0.2226626,-0.29137 -0.3447291,-0.35658 -0.1146787,-0.0807 -0.3141438,-0.14637 -0.5068605,-0.13571 -0.3137133,0.0174 -0.4316348,-0.0825 -0.3971057,-0.46314 0.014605,-0.0954 -0.00371,-0.19324 -0.051916,-0.27688 -0.073346,-0.12723 -0.2025924,-0.20214 -0.3388202,-0.21176 z" />
  </g>
</svg>
