<?xml version="1.0" encoding="UTF-8" standalone="no"?>
<svg
   xmlns:dc="http://purl.org/dc/elements/1.1/"
   xmlns:cc="http://creativecommons.org/ns#"
   xmlns:rdf="http://www.w3.org/1999/02/22-rdf-syntax-ns#"
   xmlns:svg="http://www.w3.org/2000/svg"
   xmlns="http://www.w3.org/2000/svg"
   xmlns:xlink="http://www.w3.org/1999/xlink"
   xmlns:sodipodi="http://sodipodi.sourceforge.net/DTD/sodipodi-0.dtd"
   xmlns:inkscape="http://www.inkscape.org/namespaces/inkscape"
   viewBox="0 0 48 48"
   id="svg4260"
   version="1.1"
   sodipodi:docname="9AD6_Origin.0.svg"
   inkscape:version="0.92.2 2405546, 2018-03-11">
  <sodipodi:namedview
     pagecolor="#ffffff"
     bordercolor="#666666"
     borderopacity="1"
     objecttolerance="10"
     gridtolerance="10"
     guidetolerance="10"
     inkscape:pageopacity="0"
     inkscape:pageshadow="2"
     inkscape:window-width="1920"
     inkscape:window-height="1024"
     id="namedview22"
     showgrid="false"
     inkscape:snap-bbox="true"
     inkscape:snap-bbox-midpoints="true"
     inkscape:snap-object-midpoints="true"
     inkscape:zoom="4.9166667"
     inkscape:cx="19.946855"
     inkscape:cy="33.435894"
     inkscape:window-x="0"
     inkscape:window-y="30"
     inkscape:window-maximized="1"
     inkscape:current-layer="svg4260" />
  <metadata
     id="metadata4317">
    <rdf:RDF>
      <cc:Work
         rdf:about="">
        <dc:format>image/svg+xml</dc:format>
        <dc:type
           rdf:resource="http://purl.org/dc/dcmitype/StillImage" />
        <dc:title />
      </cc:Work>
    </rdf:RDF>
  </metadata>
  <defs
     id="defs4262">
    <linearGradient
       id="linearGradient3764"
       x1="1"
       x2="47"
       gradientUnits="userSpaceOnUse"
       gradientTransform="rotate(-90,23.999998,24)"
       y1="0"
       y2="0"
       spreadMethod="pad">
      <stop
         style="stop-color:#f2eeba;stop-opacity:1"
         id="stop4265" />
      <stop
         offset="1"
         style="stop-color:#f5f2cb;stop-opacity:1"
         id="stop4267" />
    </linearGradient>
    <linearGradient
       id="linearGradient8891">
      <stop
         id="stop8887"
         offset="0"
         style="stop-color:#600ebc;stop-opacity:1" />
      <stop
         id="stop8889"
         offset="1"
         style="stop-color:#ff6800;stop-opacity:1" />
    </linearGradient>
    <linearGradient
       gradientUnits="userSpaceOnUse"
       y2="292.77499"
       x2="4.2240291"
       y1="296.97827"
       x1="0.022768054"
       id="linearGradient8893"
       xlink:href="#linearGradient8891" />
    <linearGradient
       inkscape:collect="always"
       xlink:href="#linearGradient8891"
       id="linearGradient853"
       x1="-5.4131436"
       y1="24.03388"
       x2="54.349854"
       y2="23.925695"
       gradientUnits="userSpaceOnUse"
       gradientTransform="rotate(-30,24,24)" />
    <linearGradient
       gradientTransform="matrix(0,-1,1,0,-1.5e-6,47.999998)"
       gradientUnits="userSpaceOnUse"
       x2="47"
       x1="1"
       id="linearGradient3764-3">
      <stop
         id="stop855"
         style="stop-color:#5d5a57;stop-opacity:1" />
      <stop
         id="stop857"
         style="stop-color:#676460;stop-opacity:1"
         offset="1" />
    </linearGradient>
  </defs>
  <g
     id="g4279">
    <path
       d="m 36.31 5 c 5.859 4.062 9.688 10.831 9.688 18.5 c 0 12.426 -10.07 22.5 -22.5 22.5 c -7.669 0 -14.438 -3.828 -18.5 -9.688 c 1.037 1.822 2.306 3.499 3.781 4.969 c 4.085 3.712 9.514 5.969 15.469 5.969 c 12.703 0 23 -10.298 23 -23 c 0 -5.954 -2.256 -11.384 -5.969 -15.469 c -1.469 -1.475 -3.147 -2.744 -4.969 -3.781 z m 4.969 3.781 c 3.854 4.113 6.219 9.637 6.219 15.719 c 0 12.703 -10.297 23 -23 23 c -6.081 0 -11.606 -2.364 -15.719 -6.219 c 4.16 4.144 9.883 6.719 16.219 6.719 c 12.703 0 23 -10.298 23 -23 c 0 -6.335 -2.575 -12.06 -6.719 -16.219 z"
       style="opacity:0.05"
       id="path4281" />
    <path
       d="m 41.28 8.781 c 3.712 4.085 5.969 9.514 5.969 15.469 c 0 12.703 -10.297 23 -23 23 c -5.954 0 -11.384 -2.256 -15.469 -5.969 c 4.113 3.854 9.637 6.219 15.719 6.219 c 12.703 0 23 -10.298 23 -23 c 0 -6.081 -2.364 -11.606 -6.219 -15.719 z"
       style="opacity:0.1"
       id="path4283" />
    <path
       d="m 31.25 2.375 c 8.615 3.154 14.75 11.417 14.75 21.13 c 0 12.426 -10.07 22.5 -22.5 22.5 c -9.708 0 -17.971 -6.135 -21.12 -14.75 a 23 23 0 0 0 44.875 -7 a 23 23 0 0 0 -16 -21.875 z"
       style="opacity:0.2"
       id="path4285" />
  </g>
  <path
     inkscape:connector-curvature="0"
     id="path4289"
     style="fill:url(#linearGradient853);fill-opacity:1"
     d="M 12.5,4.0814157 C 23.501121,-2.2700843 37.567084,1.4988793 43.918584,12.5 50.270084,23.501121 46.501121,37.567084 35.5,43.918584 24.498879,50.270084 10.432916,46.501121 4.0814157,35.5 -2.2700843,24.498879 1.4988793,10.432916 12.5,4.0814157 Z" />
  <g
     transform="matrix(4.0090911,0,0,4.0090911,-17.287812,-1166.3925)"
     id="layer1-6"
     style="fill:#000000;fill-opacity:1;stroke-width:0.94273925;opacity:0.216">
    <path
       d="m 12.25853,300.14884 a 0.70397163,0.70397163 0 0 1 -0.961635,-0.25766 0.70397163,0.70397163 0 0 1 0.257661,-0.96164 0.70397163,0.70397163 0 0 1 0.961648,0.25766 0.70397163,0.70397163 0 0 1 -0.257674,0.96164 z m -5.2616457,-3.02996 a 0.70397163,0.70397163 0 0 1 0.7039753,-0.70399 0.70397163,0.70397163 0 0 1 0.7039646,0.70399 0.70397163,0.70397163 0 0 1 -0.7039699,0.70395 0.70397163,0.70397163 0 0 1 -0.70397,-0.70395 z m 5.2546017,-3.04219 a 0.70397163,0.70397163 0 0 1 0.257672,0.96165 0.70397163,0.70397163 0 0 1 -0.961638,0.25767 0.70397163,0.70397163 0 0 1 -0.257664,-0.96164 0.70397163,0.70397163 0 0 1 0.96163,-0.25768 z m -3.0963818,-0.0937 c -0.1352728,-0.01 -0.2749263,0.0197 -0.4012371,0.0927 -0.00114,6.7e-4 -0.00248,10e-4 -0.00343,0.003 -0.00113,6.3e-4 -0.00278,9.9e-4 -0.00409,0.001 -0.3371544,0.19436 -0.452756,0.62551 -0.2579356,0.96239 0.08003,0.13829 0.2047329,0.24516 0.3537184,0.30318 0.5745998,0.26573 0.6203101,0.51777 0.3356319,0.95334 -0.1612764,0.2468 -0.2325388,0.55376 -0.2270179,0.78213 -0.023155,0.23135 0.048749,0.57731 0.2255096,0.84773 0.2846844,0.43558 0.2389293,0.68764 -0.3356305,0.95334 -0.1489876,0.0581 -0.2737121,0.16479 -0.3537447,0.30316 -0.194822,0.33688 -0.079225,0.76802 0.2579376,0.96237 0.00114,6.6e-4 0.00273,10e-4 0.00399,10e-4 0.00112,6.5e-4 0.00214,0.001 0.00313,0.003 0.3368942,0.1948 0.7680479,0.0792 0.9623851,-0.25794 0.079828,-0.13845 0.1102348,-0.30049 0.085972,-0.45856 -0.057188,-0.63048 0.1381247,-0.79579 0.657688,-0.76705 0.307572,0.0171 0.623888,-0.0836 0.816814,-0.21042 0.20719,-0.10252 0.455036,-0.32726 0.595081,-0.60414 0.234865,-0.46432 0.475874,-0.55104 0.993305,-0.18628 0.124809,0.10003 0.279824,0.15452 0.439706,0.15468 0.389147,2.7e-4 0.704659,-0.31532 0.704431,-0.70443 6e-6,-10e-4 -9.29e-4,-0.003 -3.86e-4,-0.003 0,-0.001 5.35e-4,-0.001 0.0011,-0.005 2.65e-4,-0.38917 -0.315332,-0.70467 -0.704438,-0.70446 -0.15987,1.2e-4 -0.314967,0.0547 -0.439715,0.15452 -0.5174,0.36479 -0.758395,0.27809 -0.993306,-0.18628 -0.13463,-0.26618 -0.368768,-0.48256 -0.570933,-0.59056 -0.189927,-0.13365 -0.520275,-0.24241 -0.839447,-0.22476 -0.5195625,0.0288 -0.7148616,-0.13663 -0.6576756,-0.76704 0.02418,-0.158 -0.00613,-0.32004 -0.085988,-0.45856 -0.1214802,-0.21071 -0.3355278,-0.33478 -0.5611445,-0.35071 z"
       style="fill:#000000;fill-opacity:1;stroke:none;stroke-width:0.24943309"
       id="path8674-3-2-7"
       inkscape:connector-curvature="0" />
  </g>
  <g
     id="g4311">
    <path
       d="m 40.03 7.531 c 3.712 4.084 5.969 9.514 5.969 15.469 0 12.703 -10.297 23 -23 23 c -5.954 0 -11.384 -2.256 -15.469 -5.969 4.178 4.291 10.01 6.969 16.469 6.969 c 12.703 0 23 -10.298 23 -23 0 -6.462 -2.677 -12.291 -6.969 -16.469 z"
       style="opacity:0.1"
       id="path4313" />
  </g>
  <g
     transform="matrix(4.0090911,0,0,4.0090911,-18.105257,-1167.1573)"
     id="layer1"
     style="fill:#fefefe;fill-opacity:1;stroke-width:0.94273925">
    <path
       d="m 12.25853,300.14884 a 0.70397163,0.70397163 0 0 1 -0.961635,-0.25766 0.70397163,0.70397163 0 0 1 0.257661,-0.96164 0.70397163,0.70397163 0 0 1 0.961648,0.25766 0.70397163,0.70397163 0 0 1 -0.257674,0.96164 z m -5.2616457,-3.02996 a 0.70397163,0.70397163 0 0 1 0.7039753,-0.70399 0.70397163,0.70397163 0 0 1 0.7039646,0.70399 0.70397163,0.70397163 0 0 1 -0.7039699,0.70395 0.70397163,0.70397163 0 0 1 -0.70397,-0.70395 z m 5.2546017,-3.04219 a 0.70397163,0.70397163 0 0 1 0.257672,0.96165 0.70397163,0.70397163 0 0 1 -0.961638,0.25767 0.70397163,0.70397163 0 0 1 -0.257664,-0.96164 0.70397163,0.70397163 0 0 1 0.96163,-0.25768 z m -3.0963818,-0.0937 c -0.1352728,-0.01 -0.2749263,0.0197 -0.4012371,0.0927 -0.00114,6.7e-4 -0.00248,10e-4 -0.00343,0.003 -0.00113,6.3e-4 -0.00278,9.9e-4 -0.00409,0.001 -0.3371544,0.19436 -0.452756,0.62551 -0.2579356,0.96239 0.08003,0.13829 0.2047329,0.24516 0.3537184,0.30318 0.5745998,0.26573 0.6203101,0.51777 0.3356319,0.95334 -0.1612764,0.2468 -0.2325388,0.55376 -0.2270179,0.78213 -0.023155,0.23135 0.048749,0.57731 0.2255096,0.84773 0.2846844,0.43558 0.2389293,0.68764 -0.3356305,0.95334 -0.1489876,0.0581 -0.2737121,0.16479 -0.3537447,0.30316 -0.194822,0.33688 -0.079225,0.76802 0.2579376,0.96237 0.00114,6.6e-4 0.00273,10e-4 0.00399,10e-4 0.00112,6.5e-4 0.00214,0.001 0.00313,0.003 0.3368942,0.1948 0.7680479,0.0792 0.9623851,-0.25794 0.079828,-0.13845 0.1102348,-0.30049 0.085972,-0.45856 -0.057188,-0.63048 0.1381247,-0.79579 0.657688,-0.76705 0.307572,0.0171 0.623888,-0.0836 0.816814,-0.21042 0.20719,-0.10252 0.455036,-0.32726 0.595081,-0.60414 0.234865,-0.46432 0.475874,-0.55104 0.993305,-0.18628 0.124809,0.10003 0.279824,0.15452 0.439706,0.15468 0.389147,2.7e-4 0.704659,-0.31532 0.704431,-0.70443 6e-6,-10e-4 -9.29e-4,-0.003 -3.86e-4,-0.003 0,-0.001 5.35e-4,-0.001 0.0011,-0.005 2.65e-4,-0.38917 -0.315332,-0.70467 -0.704438,-0.70446 -0.15987,1.2e-4 -0.314967,0.0547 -0.439715,0.15452 -0.5174,0.36479 -0.758395,0.27809 -0.993306,-0.18628 -0.13463,-0.26618 -0.368768,-0.48256 -0.570933,-0.59056 -0.189927,-0.13365 -0.520275,-0.24241 -0.839447,-0.22476 -0.5195625,0.0288 -0.7148616,-0.13663 -0.6576756,-0.76704 0.02418,-0.158 -0.00613,-0.32004 -0.085988,-0.45856 -0.1214802,-0.21071 -0.3355278,-0.33478 -0.5611445,-0.35071 z"
       style="fill:#fefefe;fill-opacity:1;stroke:none;stroke-width:0.24943309"
       id="path8674-3-2"
       inkscape:connector-curvature="0" />
  </g>
</svg>
