<?xml version="1.0" encoding="UTF-8" standalone="no"?>
<svg
   xmlns:dc="http://purl.org/dc/elements/1.1/"
   xmlns:cc="http://creativecommons.org/ns#"
   xmlns:rdf="http://www.w3.org/1999/02/22-rdf-syntax-ns#"
   xmlns:svg="http://www.w3.org/2000/svg"
   xmlns="http://www.w3.org/2000/svg"
   xmlns:xlink="http://www.w3.org/1999/xlink"
   xmlns:sodipodi="http://sodipodi.sourceforge.net/DTD/sodipodi-0.dtd"
   xmlns:inkscape="http://www.inkscape.org/namespaces/inkscape"
   width="1000"
   height="99.542915"
   viewBox="0 0 264.58334 26.337396"
   version="1.1"
   id="svg8116"
   sodipodi:docname="title.svg"
   inkscape:version="0.92.2 2405546, 2018-03-11">
  <sodipodi:namedview
     pagecolor="#ffffff"
     bordercolor="#666666"
     borderopacity="1"
     objecttolerance="10"
     gridtolerance="10"
     guidetolerance="10"
     inkscape:pageopacity="0"
     inkscape:pageshadow="2"
     inkscape:window-width="1920"
     inkscape:window-height="1024"
     id="namedview11"
     showgrid="false"
     inkscape:snap-bbox="true"
     inkscape:snap-bbox-midpoints="true"
     inkscape:snap-object-midpoints="true"
     fit-margin-top="10"
     fit-margin-left="10"
     fit-margin-right="10"
     fit-margin-bottom="10"
     inkscape:zoom="0.65186407"
     inkscape:cx="159.99364"
     inkscape:cy="-50.107406"
     inkscape:window-x="0"
     inkscape:window-y="30"
     inkscape:window-maximized="1"
     inkscape:current-layer="svg8116" />
  <defs
     id="defs8110">
    <linearGradient
       id="linearGradient8891">
      <stop
         style="stop-color:#600ebc;stop-opacity:1"
         offset="0"
         id="stop8887" />
      <stop
         style="stop-color:#ff6800;stop-opacity:1"
         offset="1"
         id="stop8889" />
    </linearGradient>
    <linearGradient
       xlink:href="#linearGradient8891"
       id="linearGradient8893"
       x1="0.022768054"
       y1="296.97827"
       x2="4.2240291"
       y2="292.77499"
       gradientUnits="userSpaceOnUse" />
    <linearGradient
       inkscape:collect="always"
       xlink:href="#linearGradient8891"
       id="linearGradient841"
       x1="49.010624"
       y1="39.070744"
       x2="62.288826"
       y2="-18.330389"
       gradientUnits="userSpaceOnUse" />
    <linearGradient
       inkscape:collect="always"
       xlink:href="#linearGradient8891"
       id="linearGradient843"
       gradientUnits="userSpaceOnUse"
       x1="49.010624"
       y1="39.070744"
       x2="62.288826"
       y2="-18.330389" />
    <linearGradient
       inkscape:collect="always"
       xlink:href="#linearGradient8891"
       id="linearGradient845"
       gradientUnits="userSpaceOnUse"
       x1="49.010624"
       y1="39.070744"
       x2="62.288826"
       y2="-18.330389" />
    <linearGradient
       inkscape:collect="always"
       xlink:href="#linearGradient8891"
       id="linearGradient847"
       gradientUnits="userSpaceOnUse"
       x1="49.010624"
       y1="39.070744"
       x2="62.288826"
       y2="-18.330389" />
    <linearGradient
       inkscape:collect="always"
       xlink:href="#linearGradient8891"
       id="linearGradient849"
       gradientUnits="userSpaceOnUse"
       x1="49.010624"
       y1="39.070744"
       x2="62.288826"
       y2="-18.330389" />
    <linearGradient
       inkscape:collect="always"
       xlink:href="#linearGradient8891"
       id="linearGradient851"
       gradientUnits="userSpaceOnUse"
       x1="49.010624"
       y1="39.070744"
       x2="62.288826"
       y2="-18.330389" />
  </defs>
  <metadata
     id="metadata8113">
    <rdf:RDF>
      <cc:Work
         rdf:about="">
        <dc:format>image/svg+xml</dc:format>
        <dc:type
           rdf:resource="http://purl.org/dc/dcmitype/StillImage" />
        <dc:title></dc:title>
      </cc:Work>
    </rdf:RDF>
  </metadata>
  <g
     id="layer1"
     transform="matrix(5.5895747,0,0,5.5564314,2.6458333,-1625.319)"
     style="stroke-width:0.17943726">
    <path
       id="path8674-3-2"
       style="fill:url(#linearGradient8893);fill-opacity:1;stroke:none;stroke-width:0.04747611"
       d="m 3.1769926,296.71577 a 0.42505952,0.42505952 0 0 1 -0.580637,-0.15558 0.42505952,0.42505952 0 0 1 0.1555757,-0.58064 0.42505952,0.42505952 0 0 1 0.5806445,0.15558 0.42505952,0.42505952 0 0 1 -0.1555832,0.58064 z M 0,294.88627 a 0.42505952,0.42505952 0 0 1 0.42506173,-0.42507 0.42505952,0.42505952 0 0 1 0.42505522,0.42507 0.42505952,0.42505952 0 0 1 -0.42505848,0.42505 A 0.42505952,0.42505952 0 0 1 0,294.88627 Z m 3.1727391,-1.83688 a 0.42505952,0.42505952 0 0 1 0.1555828,0.58065 0.42505952,0.42505952 0 0 1 -0.5806385,0.15558 0.42505952,0.42505952 0 0 1 -0.1555784,-0.58064 0.42505952,0.42505952 0 0 1 0.5806341,-0.15559 z m -1.8696015,-0.0566 c -0.081678,-0.006 -0.1660011,0.0119 -0.2422678,0.056 -6.868e-4,4e-4 -0.0015,8.8e-4 -0.00207,0.002 -6.836e-4,3.8e-4 -0.00168,6e-4 -0.00247,8.8e-4 -0.20357455,0.11735 -0.27337497,0.37768 -0.15574198,0.58109 0.0483215,0.0835 0.12361808,0.14803 0.21357588,0.18306 0.3469449,0.16045 0.3745447,0.31263 0.2026552,0.57563 -0.097379,0.14902 -0.1404074,0.33436 -0.1370739,0.47225 -0.013981,0.13969 0.029435,0.34858 0.1361632,0.51186 0.1718925,0.26301 0.1442663,0.4152 -0.2026544,0.57563 -0.089959,0.0351 -0.16526787,0.0995 -0.21359182,0.18305 -0.11763387,0.20341 -0.0478359,0.46373 0.15574332,0.58108 6.871e-4,4e-4 0.00165,8.9e-4 0.00241,6.5e-4 6.751e-4,3.9e-4 0.00129,8.8e-4 0.00189,0.002 0.2034174,0.11762 0.4637488,0.0478 0.5810902,-0.15574 0.048203,-0.0836 0.066556,-0.18144 0.051913,-0.27688 -0.034528,-0.38069 0.083397,-0.4805 0.397113,-0.46315 0.1857128,0.0103 0.3767045,-0.0505 0.4931935,-0.12705 0.125102,-0.0619 0.2747518,-0.1976 0.3593113,-0.36478 0.1418119,-0.28036 0.2873335,-0.33272 0.59976,-0.11248 0.075358,0.0604 0.1689583,0.0933 0.2654948,0.0934 0.2349681,1.6e-4 0.4254749,-0.19039 0.4253371,-0.42534 4.1e-6,-7.9e-4 -5.608e-4,-0.002 -2.326e-4,-0.002 -3e-7,-8e-4 3.225e-4,-8.9e-4 6.452e-4,-0.003 1.604e-4,-0.23498 -0.190398,-0.42548 -0.4253408,-0.42535 -0.096528,7e-5 -0.1901776,0.033 -0.2655007,0.0933 -0.3124075,0.22026 -0.4579199,0.16791 -0.5997606,-0.11248 -0.08129,-0.16072 -0.2226626,-0.29137 -0.3447291,-0.35658 -0.1146787,-0.0807 -0.3141438,-0.14637 -0.5068605,-0.13571 -0.3137133,0.0174 -0.4316348,-0.0825 -0.3971057,-0.46314 0.014605,-0.0954 -0.00371,-0.19324 -0.051916,-0.27688 -0.073346,-0.12723 -0.2025924,-0.20214 -0.3388202,-0.21176 z"
       inkscape:connector-curvature="0" />
  </g>
  <g
     aria-label="Plama"
     style="font-style:normal;font-weight:normal;font-size:10.58333302px;line-height:1.25;font-family:sans-serif;letter-spacing:0px;word-spacing:0px;fill:url(#linearGradient841);fill-opacity:1;stroke:none;stroke-width:0.24762698"
     id="text822"
     transform="matrix(1.0684753,0,0,1.0684753,-22.58312,1.0942011)">
    <path
       d="m 56.099664,2.6205929 q 3.556,0 5.1816,1.4478 1.625599,1.4224 1.625599,3.9878 0,1.524 -0.6858,2.8448001 -0.660399,1.3208 -2.235199,2.159 -1.5748,0.8128 -4.2672,0.8128 h -1.9558 v 6.8834 h -2.7432 V 2.6205929 Z m -0.2032,2.3114 h -2.1336 v 6.6294001 h 1.651 q 2.3114,0 3.4798,-0.762 1.1938,-0.7874 1.1938,-2.6416001 0,-1.6256 -1.016,-2.413 -1.016,-0.8128 -3.175,-0.8128 z"
       style="font-style:normal;font-variant:normal;font-weight:500;font-stretch:normal;font-size:25.39999962px;font-family:'Noto Sans';-inkscape-font-specification:'Noto Sans, Medium';font-variant-ligatures:normal;font-variant-caps:normal;font-variant-numeric:normal;font-feature-settings:normal;text-align:start;writing-mode:lr-tb;text-anchor:start;fill:url(#linearGradient843);fill-opacity:1;stroke-width:0.24762698"
       id="path824"
       inkscape:connector-curvature="0" />
    <path
       d="m 68.934997,20.756193 h -2.6924 V 1.4521929 h 2.6924 z"
       style="font-style:normal;font-variant:normal;font-weight:500;font-stretch:normal;font-size:25.39999962px;font-family:'Noto Sans';-inkscape-font-specification:'Noto Sans, Medium';font-variant-ligatures:normal;font-variant-caps:normal;font-variant-numeric:normal;font-feature-settings:normal;text-align:start;writing-mode:lr-tb;text-anchor:start;fill:url(#linearGradient845);fill-opacity:1;stroke-width:0.24762698"
       id="path826"
       inkscape:connector-curvature="0" />
    <path
       d="m 78.446901,6.8115929 q 2.5654,0 3.8354,1.143 1.2954,1.1176 1.2954,3.5306001 v 9.271 h -1.905 l -0.5334,-1.905 h -0.1016 q -0.889,1.1176 -1.8796,1.651 -0.9652,0.508 -2.6924,0.508 -1.8542,0 -3.0734,-0.9906 -1.2192,-1.016 -1.2192,-3.1496 0,-2.1082 1.5748,-3.175 1.6002,-1.0922 4.8514,-1.1938 l 2.3368,-0.0762 v -0.762 q 0,-1.4986 -0.6858,-2.1082001 -0.6858,-0.635 -1.9304,-0.635 -1.0414,0 -2.0066,0.3048 -0.9652,0.3048 -1.8542,0.7366 l -0.8636,-1.9558 q 0.9652,-0.508 2.2098,-0.8382 1.27,-0.3556 2.6416,-0.3556 z m 2.4638,7.3660001 -1.8288,0.0508 q -2.3368,0.1016 -3.2512,0.7874 -0.889,0.6858 -0.889,1.8796 0,1.0668 0.635,1.5494 0.635,0.4826 1.651,0.4826 1.5748,0 2.6162,-0.889 1.0668,-0.889 1.0668,-2.667 z"
       style="font-style:normal;font-variant:normal;font-weight:500;font-stretch:normal;font-size:25.39999962px;font-family:'Noto Sans';-inkscape-font-specification:'Noto Sans, Medium';font-variant-ligatures:normal;font-variant-caps:normal;font-variant-numeric:normal;font-feature-settings:normal;text-align:start;writing-mode:lr-tb;text-anchor:start;fill:url(#linearGradient847);fill-opacity:1;stroke-width:0.24762698"
       id="path828"
       inkscape:connector-curvature="0" />
    <path
       d="m 103.06506,6.8115929 q 2.3114,0 3.4798,1.1938 1.1684,1.1938 1.1684,3.8354001 v 8.9154 h -2.6924 v -8.5598 q 0,-3.1750001 -2.5654,-3.1750001 -1.8288,0 -2.616202,1.1430001 -0.7874,1.1176 -0.7874,3.2258 v 7.366 h -2.667 v -8.5598 q 0,-3.1750001 -2.5908,-3.1750001 -1.9304,0 -2.667,1.2446001 -0.7112,1.2446 -0.7112,3.5814 v 6.9088 h -2.6924 V 7.0655929 h 2.1336 l 0.381,1.8288 h 0.1524 q 0.635,-1.0668 1.7018,-1.5748 1.0922,-0.508 2.3114,-0.508 3.1496,0 4.1656,2.2098 h 0.2032 q 0.6604,-1.1176 1.828802,-1.651 1.1684,-0.5588 2.4638,-0.5588 z"
       style="font-style:normal;font-variant:normal;font-weight:500;font-stretch:normal;font-size:25.39999962px;font-family:'Noto Sans';-inkscape-font-specification:'Noto Sans, Medium';font-variant-ligatures:normal;font-variant-caps:normal;font-variant-numeric:normal;font-feature-settings:normal;text-align:start;writing-mode:lr-tb;text-anchor:start;fill:url(#linearGradient849);fill-opacity:1;stroke-width:0.24762698"
       id="path830"
       inkscape:connector-curvature="0" />
    <path
       d="m 117.14221,6.8115929 q 2.5654,0 3.8354,1.143 1.2954,1.1176 1.2954,3.5306001 v 9.271 h -1.905 l -0.5334,-1.905 h -0.1016 q -0.889,1.1176 -1.8796,1.651 -0.9652,0.508 -2.6924,0.508 -1.8542,0 -3.0734,-0.9906 -1.2192,-1.016 -1.2192,-3.1496 0,-2.1082 1.5748,-3.175 1.6002,-1.0922 4.8514,-1.1938 l 2.3368,-0.0762 v -0.762 q 0,-1.4986 -0.6858,-2.1082001 -0.6858,-0.635 -1.9304,-0.635 -1.0414,0 -2.0066,0.3048 -0.9652,0.3048 -1.8542,0.7366 l -0.8636,-1.9558 q 0.9652,-0.508 2.2098,-0.8382 1.27,-0.3556 2.6416,-0.3556 z m 2.4638,7.3660001 -1.8288,0.0508 q -2.3368,0.1016 -3.2512,0.7874 -0.889,0.6858 -0.889,1.8796 0,1.0668 0.635,1.5494 0.635,0.4826 1.651,0.4826 1.5748,0 2.6162,-0.889 1.0668,-0.889 1.0668,-2.667 z"
       style="font-style:normal;font-variant:normal;font-weight:500;font-stretch:normal;font-size:25.39999962px;font-family:'Noto Sans';-inkscape-font-specification:'Noto Sans, Medium';font-variant-ligatures:normal;font-variant-caps:normal;font-variant-numeric:normal;font-feature-settings:normal;text-align:start;writing-mode:lr-tb;text-anchor:start;fill:url(#linearGradient851);fill-opacity:1;stroke-width:0.24762698"
       id="path832"
       inkscape:connector-curvature="0" />
  </g>
</svg>
